# xmcd
#
# Track frame offsets:
#	150
#	17662
#	38564
#	56404
#	73115
#	89728
#	102797
#	119669
#	144862
#	161683
#
# Disc length: 2465 seconds
#
# Revision: 0
# Processed by: cddbd v1.5.2PL0 Copyright (c) Steve Scherf et al.
# Submitted via: dBpowerAMP V4.0
#
DISCID=83099f0a
DTITLE=Sally-Anne Whitten - Blurring the lines
DYEAR=1900
DGENRE=Country
TTITLE0=Don't know much about love
TTITLE1=Linda's on the radio
TTITLE2=Real Man
TTITLE3=Count your blessings
TTITLE4=Manwrecker
TTITLE5=Keep on tryin'
TTITLE6=Little black book
TTITLE7=Sweet Lullaby
TTITLE8=I believe I'm in love with you
TTITLE9=It ain't right
EXTD=
EXTT0=
EXTT1=
EXTT2=
EXTT3=
EXTT4=
EXTT5=
EXTT6=
EXTT7=
EXTT8=
EXTT9=
PLAYORDER=
